<svg width="81" height="91" viewBox="0 0 81 91" fill="none" xmlns="http://www.w3.org/2000/svg">
<path fill-rule="evenodd" clip-rule="evenodd" d="M69.2391 48.1523C69.2194 46.3875 68.8032 44.6448 68.1547 43.0078C67.6544 41.7406 67.0733 40.5066 66.506 39.2681C61.991 29.5021 57.253 19.8392 52.2956 10.2869C51.5984 8.95222 50.9158 7.60944 50.1795 6.29537C49.4559 5.01353 48.6135 3.77954 47.523 2.77623C45.7829 1.12973 43.4481 0.148079 41.0519 0H39.9486C37.4819 0.120881 35.074 1.14837 33.304 2.86084C32.2535 3.84854 31.4406 5.05281 30.7362 6.29889C30.0096 7.59131 29.3367 8.91294 28.6526 10.2265C25.3262 16.6353 22.0977 23.0938 18.9683 29.5997C17.1029 33.493 15.2532 37.3929 13.474 41.3246C12.7362 42.9625 12.0689 44.6564 11.8177 46.4444C11.3524 49.4634 12.0197 52.632 13.6445 55.2243C15.0451 57.4763 17.1475 59.291 19.598 60.3391C21.5137 61.1598 23.5958 61.5255 25.6789 61.4074C28.4613 61.2608 31.1442 60.2686 33.4983 58.8205C36.1244 57.2209 38.3705 55.0934 40.4617 52.8662C42.4063 54.9463 44.4874 56.9313 46.8897 58.4871C49.2098 60.0022 51.8551 61.0991 54.6375 61.3601C57.6595 61.6733 60.7905 60.9299 63.3267 59.2603C65.57 57.7849 67.3072 55.6663 68.3069 53.1865C68.9507 51.5863 69.2676 49.8751 69.2391 48.1523V48.1523ZM40.4744 46.9878C39.7157 46.1014 39.0474 45.1424 38.376 44.1905C37.2464 42.546 36.2193 40.827 35.3932 39.0107C34.7162 37.5037 34.1728 35.9217 33.9606 34.2787C33.8059 32.9752 33.8429 31.6153 34.325 30.3778C34.7563 29.2174 35.5855 28.212 36.636 27.5477C39.1387 25.9445 42.7062 26.1178 44.974 28.0625C46.1219 29.033 46.8075 30.468 46.98 31.9427C47.2058 33.903 46.7567 35.8719 46.0671 37.7002C44.7649 41.0929 42.7036 44.134 40.4744 46.9878V46.9878ZM65.0318 51.1456C64.363 53.4368 62.7553 55.4384 60.6519 56.5933C58.7875 57.6284 56.5623 57.9829 54.4604 57.6344C51.7836 57.2209 49.3818 55.8111 47.3007 54.147C45.7712 52.9271 44.394 51.533 43.0746 50.096C45.1577 47.4809 47.12 44.745 48.6191 41.7542C49.9273 39.1351 50.9214 36.2975 51.0158 33.3525C51.0691 31.4839 50.7149 29.581 49.8355 27.9174C48.684 25.6947 46.6212 23.9873 44.2565 23.1612C42.0475 22.378 39.5919 22.308 37.3383 22.9457C35.213 23.5425 33.272 24.8103 31.942 26.5676C30.7713 28.0997 30.104 29.9835 29.9492 31.8939C29.7112 34.6454 30.4059 37.3904 31.4568 39.9198C33.0193 43.6158 35.3125 46.9611 37.8452 50.0643C36.7032 51.3734 35.4639 52.5957 34.1377 53.7209C32.0815 55.448 29.7289 56.9514 27.0638 57.5236C24.9091 58.0036 22.5844 57.7649 20.6084 56.7726C18.2939 55.6278 16.5168 53.4716 15.8464 50.993C15.3339 49.1723 15.4475 47.2064 16.057 45.4229C16.5639 43.9472 17.2516 42.5409 17.895 41.1211C22.3617 31.4603 27.0465 21.9005 31.946 12.4487C32.6768 11.0419 33.3963 9.62865 34.1697 8.24507C34.801 7.13045 35.5353 6.03598 36.573 5.25327C37.6951 4.38565 39.0832 3.92643 40.5053 3.9523C41.9668 3.93517 43.4197 4.46956 44.5376 5.40186C45.6418 6.31199 46.3878 7.55706 47.0576 8.7981C48.5719 11.6212 50.0263 14.477 51.4811 17.3298C55.6334 25.4865 59.6231 33.7238 63.448 42.0368C64.026 43.3282 64.6446 44.6095 65.0338 45.9724C65.5093 47.6532 65.5251 49.4684 65.0318 51.1456V51.1456ZM18.8059 69.0224C20.0563 68.7413 21.4224 69.5598 21.7471 70.7918C22.1506 72.0525 21.3488 73.5181 20.072 73.8828C18.8247 74.318 17.3434 73.5614 16.9303 72.3254C16.5386 71.2839 16.9577 70.0267 17.8884 69.4107C18.1659 69.2233 18.4776 69.0914 18.8059 69.0224V69.0224ZM27.251 77.1602C28.0041 76.3478 29.0652 75.8385 30.1583 75.6764C30.8875 75.6056 31.6234 75.6519 32.3378 75.8134C32.3287 76.9572 32.3358 78.0995 32.3337 79.2439C31.2128 78.9563 29.9989 78.8968 28.8987 79.2988C28.3011 79.5147 27.7625 79.866 27.3256 80.3247C27.2312 80.4048 27.2541 80.5343 27.2454 80.6456C27.252 83.8413 27.2404 87.0376 27.25 90.2329C27.2388 90.3558 27.2688 90.4943 27.214 90.6097C25.9707 90.6384 24.7259 90.6152 23.4821 90.6197C23.4826 85.7477 23.4781 80.8747 23.4852 76.0027C24.5326 76.0073 25.5805 75.9987 26.6284 76.0048C26.8588 75.9917 27.1044 76.109 27.1886 76.3321C27.2713 76.5991 27.2449 76.8837 27.251 77.1602V77.1602ZM54.059 77.1733C55.0542 76.1513 56.4964 75.6487 57.9117 75.6456C59.4071 75.6084 60.9397 76.0471 62.0951 77.0101C62.8636 77.6083 63.4178 78.4359 63.6759 79.3708C64.0047 80.5096 63.9753 81.7058 63.9712 82.8788C63.9722 85.4596 63.9712 88.0409 63.9722 90.6222C62.7183 90.6202 61.4649 90.6303 60.211 90.6167C60.212 88.0374 60.211 85.4581 60.212 82.8778C60.212 81.9193 60.2576 80.8853 59.7441 80.0316C59.3863 79.4191 58.6784 79.1139 57.9959 79.0429C56.6958 78.8364 55.3378 79.3496 54.4417 80.2905C54.3463 80.3852 54.2646 80.505 54.2752 80.6481C54.263 81.047 54.3239 81.4474 54.2894 81.8468C54.2402 82.3893 54.3168 82.9317 54.2991 83.4757C54.283 84.5012 54.2816 85.527 54.295 86.5526C54.224 87.909 54.3478 89.2699 54.2661 90.6248C53.0172 90.6207 51.7694 90.6238 50.5205 90.6233C50.52 85.7487 50.5114 80.8752 50.5251 76.0012C51.4908 76.0088 52.4585 76.0012 53.4237 76.0042C53.6734 75.9886 53.9464 76.1271 54.0108 76.379C54.0697 76.6379 54.0519 76.9073 54.059 77.1733V77.1733ZM17.4307 90.6227C17.4302 85.7487 17.4231 80.8752 17.4332 76.0017C18.6775 76.0047 19.9213 76.0037 21.1651 76.0027C21.1747 80.8762 21.1676 85.7497 21.1686 90.6222C19.9228 90.6222 18.677 90.6212 17.4307 90.6227V90.6227ZM15.1131 76.0032C14.1271 76.0012 13.1411 76.0063 12.1541 75.9977C11.8933 75.9962 11.5604 76.0088 11.433 76.2808C11.3189 76.5603 11.3625 76.8706 11.3524 77.1647C10.5318 76.2979 9.37529 75.7831 8.18886 75.6713C6.35693 75.5081 4.45853 76.0123 2.98741 77.1163C1.7756 78.0048 0.879933 79.2897 0.411041 80.705C0.185222 81.3683 0.0720591 82.0644 0 82.76V83.7608C0.105044 85.8555 1.04384 87.9276 2.68141 89.278C3.91656 90.3165 5.50389 90.8967 7.11203 90.998H7.95035C9.22509 90.9129 10.4836 90.3896 11.3534 89.4467C11.3615 89.7423 11.3194 90.0556 11.431 90.3387C11.5472 90.5679 11.8212 90.6308 12.0592 90.6217C13.0767 90.6192 14.0957 90.6228 15.1141 90.6172C15.1141 85.7472 15.1172 80.8752 15.1131 76.0032V76.0032ZM11.2372 86.0681C10.476 86.9727 9.287 87.5076 8.09954 87.4703C6.82684 87.4799 5.50592 86.9958 4.6813 86.0051C3.87698 85.0592 3.63391 83.7436 3.81659 82.5414C3.9531 81.5683 4.45295 80.635 5.24255 80.0311C5.95858 79.47 6.86134 79.1809 7.76513 79.1184C9.11142 79.0016 10.5308 79.5909 11.3407 80.6697C11.3864 82.2583 11.3417 83.8509 11.362 85.442C11.3488 85.6515 11.4072 85.9039 11.2372 86.0681V86.0681ZM48.3709 80.1852C47.7914 78.7785 46.7633 77.5556 45.4602 76.7577C44.1179 75.9287 42.5083 75.554 40.9346 75.6602C39.6919 75.7413 38.4775 76.2677 37.6148 77.1672C37.6098 74.4368 37.6148 71.7079 37.6123 68.9776C36.3579 68.9781 35.1024 68.972 33.848 68.9811C33.8546 76.1926 33.8373 83.4077 33.8571 90.6187C34.8959 90.6212 35.9357 90.6238 36.9749 90.6212C37.2332 90.6414 37.5118 90.5004 37.5829 90.241C37.6341 89.9771 37.6154 89.7046 37.6169 89.4371C38.4887 90.3996 39.7695 90.9219 41.0574 90.999H41.8257C43.9109 90.8952 45.9554 89.9252 47.2642 88.2988C49.0971 86.0681 49.4549 82.8254 48.3709 80.1852V80.1852ZM43.984 86.337C43.1436 87.1112 41.9805 87.4824 40.8448 87.4713C39.6599 87.4985 38.476 86.9581 37.7255 86.0479C37.6326 85.9532 37.6022 85.8253 37.6098 85.6994C37.6108 84.0262 37.6123 82.3535 37.6098 80.6813C38.3304 79.7485 39.4838 79.1673 40.6637 79.1074C41.8597 79.0726 43.1147 79.4211 43.9926 80.2582C44.8289 81.0284 45.2369 82.1833 45.2105 83.3019C45.2348 84.4191 44.8157 85.5664 43.984 86.337V86.337ZM79.3223 78.376C77.7269 76.3593 74.9993 75.3419 72.4564 75.7192C71.3943 75.8854 70.388 76.3911 69.6456 77.1667C69.6375 74.4378 69.6456 71.709 69.6416 68.9791C68.3892 68.9776 67.1378 68.9765 65.8864 68.9801C65.8854 76.1921 65.8864 83.4062 65.8864 90.6192C66.8734 90.6268 67.8629 90.6177 68.8499 90.6268C69.1092 90.6308 69.4335 90.6102 69.5665 90.3472C69.6817 90.0632 69.6385 89.7464 69.6466 89.4477C70.5119 90.3885 71.7648 90.9083 73.0324 91H73.8778C75.9401 90.8887 77.9563 89.9332 79.2625 88.3316C80.3291 87.0543 80.9046 85.4183 81 83.7708V82.7932C80.8818 81.2026 80.3408 79.6231 79.3223 78.376V78.376ZM76.3913 85.917C75.3982 87.1857 73.6459 87.6576 72.0916 87.4114C71.1452 87.224 70.2272 86.7168 69.6674 85.925C69.605 85.3111 69.6613 84.69 69.6426 84.073C69.6558 82.9383 69.6142 81.8 69.6613 80.6672C70.2307 79.888 71.1421 79.3884 72.0799 79.1819C73.8154 78.8636 75.8331 79.546 76.7105 81.1366C77.5092 82.6089 77.4295 84.5762 76.3913 85.917Z" fill="black"/>
</svg>
