<svg width="159" height="46" viewBox="0 0 159 46" fill="none" xmlns="http://www.w3.org/2000/svg">
<path fill-rule="evenodd" clip-rule="evenodd" d="M45.3783 10.9946C45.3823 13.9118 44.2304 16.7107 42.1768 18.7734C40.1231 20.8362 37.3366 21.9932 34.4323 21.9892C28.3746 21.9892 23.4864 17.0784 23.4864 10.9946C23.4864 4.91081 28.3755 1.07954e-05 34.4323 1.07954e-05C37.3366 -0.0040771 40.1231 1.15296 42.1768 3.21573C44.2304 5.2785 45.3823 8.07739 45.3783 10.9946ZM21.9981 10.9946C21.9981 17.0793 17.0037 21.9892 10.9459 21.9892C4.99441 21.9892 0 17.0784 0 10.9946C0 4.91081 4.99441 1.07954e-05 10.9459 1.07954e-05C17.0037 1.07954e-05 21.9981 4.9099 21.9981 10.9946ZM10.9459 45.58C17.0037 45.58 21.9981 40.6701 21.9981 34.5854C21.9981 28.4998 17.0037 23.5908 10.9459 23.5908C4.99441 23.5908 0 28.4998 0 34.5854C0 40.6692 4.99441 45.58 10.9459 45.58ZM45.3783 34.5854C45.3823 37.5026 44.2304 40.3015 42.1768 42.3642C40.1231 44.427 37.3366 45.5841 34.4323 45.58C31.5281 45.5841 28.7415 44.427 26.6879 42.3642C24.6343 40.3015 23.4823 37.5026 23.4864 34.5854C23.4823 31.6682 24.6343 28.8693 26.6879 26.8065C28.7415 24.7438 31.5281 23.5867 34.4323 23.5908C37.3367 23.5865 40.1233 24.7435 42.177 26.8063C44.2307 28.8691 45.3826 31.6681 45.3783 34.5854ZM125.402 1.60078C127.526 1.60078 129.653 2.13436 130.823 2.66885L130.715 5.87127C129.015 5.01753 127.422 4.48304 125.403 4.48304C123.595 4.48304 122.002 5.01663 122.002 6.51157C122.002 8.24073 123.897 8.9058 126.027 9.65357C128.762 10.6137 131.886 11.7103 131.886 15.3709C131.886 19.0002 128.91 21.2422 124.447 21.2422C121.471 21.2422 119.451 20.3884 117.963 19.5338L119.345 16.8649C120.515 17.612 122.428 18.359 124.552 18.359C126.571 18.359 128.379 17.612 128.379 15.9045C128.379 14.0544 126.449 13.3847 124.303 12.6405C121.62 11.7098 118.602 10.6625 118.602 7.04425C118.601 3.52259 121.363 1.60078 125.402 1.60078ZM54.1993 21.0278V1.7075H61.2132C62.7007 1.7075 63.6578 2.02765 64.5077 2.3478C66.421 3.30825 67.2701 5.12335 67.2701 6.7241C67.2701 8.5392 66.5264 9.8198 65.0381 10.7803C67.2701 11.3138 68.5459 12.8088 68.5459 15.1566C68.5459 17.8254 66.9514 19.7463 64.2943 20.6009C63.3381 20.9211 62.2757 21.0278 60.6811 21.0278H54.1993ZM62.8069 5.01663C62.2757 4.8032 61.7445 4.69648 60.9998 4.69648H57.3866V9.71309H60.7874C61.7436 9.71309 62.3819 9.60637 62.9132 9.28622C63.6441 8.87698 64.0928 8.09815 64.0818 7.25769C64.0818 6.29814 63.5506 5.4435 62.8069 5.01663ZM61.6382 12.7021C62.7007 12.7021 63.339 12.8088 63.764 13.0222C64.7202 13.45 65.1452 14.1961 65.1452 15.2633C65.1452 16.3305 64.7202 17.1851 63.764 17.612C63.2328 17.8254 62.5944 18.0388 61.3195 18.0388H57.3875V12.7021H61.6382ZM87.6745 21.0287V1.7075H90.9699V21.0287H87.6745ZM111.586 1.7075V21.0287H114.881V1.7075H111.586ZM147.4 12.703V21.0287H150.694V1.7075H147.4V9.60727H138.153V1.7075H134.86V21.0287H138.153V12.703H147.4ZM61.4257 24.3379C63.4444 24.3379 65.039 24.7647 66.7389 25.5117L65.7827 28.2873C64.8265 27.8595 63.5506 27.3268 61.7445 27.3268C58.1312 27.3268 55.8992 30.4225 55.8992 34.1585C55.8992 38.0022 58.025 41.097 61.7445 41.097C63.5506 41.097 64.8265 40.5634 65.7827 40.1365L66.7389 42.9111C65.0381 43.6582 63.4444 44.0859 61.4257 44.0859C55.6867 44.0859 52.3922 40.0298 52.3922 34.2653C52.3922 28.8209 55.6867 24.3379 61.4257 24.3379ZM138.579 25.5117C136.987 24.7647 135.391 24.3379 133.267 24.3379C127.527 24.3379 124.233 28.8209 124.234 34.2653C124.234 40.0298 127.527 44.0859 133.267 44.0859C135.391 44.0859 136.986 43.6582 138.579 42.9111L137.623 40.1365C136.667 40.5634 135.392 41.097 133.586 41.097C129.866 41.097 127.741 38.0022 127.741 34.1585C127.741 30.4225 129.972 27.3268 133.586 27.3268C135.391 27.3268 136.667 27.8595 137.623 28.2873L138.579 25.5117ZM85.4425 34.1576C85.4425 39.9222 81.8301 44.0859 76.4099 44.0859C70.9896 44.0859 67.3763 40.0298 67.3763 34.2653C67.3763 28.5007 70.9905 24.3379 76.4099 24.3379C81.9364 24.3379 85.4425 28.394 85.4425 34.1576ZM76.4099 27.3259C79.599 27.3259 82.0417 29.9948 82.0417 34.1576C82.0417 38.4281 79.599 41.0961 76.4099 41.0961C73.2225 41.0961 70.778 38.4281 70.778 34.2643C70.778 29.9948 73.2216 27.3259 76.4099 27.3259ZM87.6745 36.5063V24.5513H90.9699V36.613C90.9699 39.9222 92.6707 41.0961 95.4331 41.0961C98.1954 41.0961 99.8963 39.9222 99.8963 36.613V24.5513H103.19V36.5063C103.19 41.7373 100.214 44.0859 95.4331 44.0859C90.6503 44.0859 87.6745 41.7373 87.6745 36.5063ZM109.249 29.7813H109.354L118.919 43.7649H121.789V24.5513H118.494V35.119C118.494 35.9727 118.494 37.0408 118.601 37.6811H118.494L109.674 24.5513H106.06V43.7649H109.354V32.3434C109.354 31.4897 109.354 30.4216 109.249 29.7813ZM141.131 43.7649V24.5513H144.425V43.7649H141.131ZM147.4 24.5513V43.7649H158.24V40.7768H150.694V24.5513H147.4ZM109.036 1.81512H93.5198V4.80319H99.6838V21.0287H102.979V4.80319H109.036V1.81512ZM81.7618 20.8817L81.831 21.0287H85.5514C82.3632 14.6239 81.4061 12.8088 80.5552 12.2752C82.681 11.6349 84.0631 9.92742 84.0631 7.25859C84.0631 4.37723 82.2551 1.81512 77.2607 1.81512H70.778V21.0287H74.0725V13.5567H77.1545C78.3134 13.5567 79.0544 15.1307 81.7618 20.8817ZM77.4723 4.69648H74.0716V10.5677H77.3661C79.7043 10.5677 80.7659 9.39384 80.7659 7.57874C80.7668 5.97799 79.8106 4.69648 77.4723 4.69648Z" fill="black"/>
</svg>
