<svg width="140" height="30" viewBox="0 0 140 30" fill="none" xmlns="http://www.w3.org/2000/svg">
<path fill-rule="evenodd" clip-rule="evenodd" d="M11.1148 20.7683C13.3727 24.4575 17.5132 26.9327 22.121 26.9327C28.9295 26.9327 32.6781 21.0763 32.6781 21.0763L33.1604 22.6366C30.0079 26.7231 24.3767 29.184 18.077 29.184C10.8231 29.184 4.56785 25.7353 1.68892 20.7616C0.605178 18.8881 0 16.7953 0 14.592C0 6.53316 8.09266 0 18.077 0C25.1311 0 30.8098 3.01155 33.792 7.376L21.9552 14.441L28.7109 4.10229C26.7778 2.89061 24.4068 1.7563 21.9552 1.7563C15.0254 1.7563 9.31808 7.52023 9.31808 14.4275C9.31808 16.7419 9.97752 18.9159 11.1148 20.7683ZM42.2946 20.5064C42.2601 20.7375 42.2421 20.9738 42.2421 21.2146C42.2421 23.8252 44.3605 25.9407 46.9745 25.9407C49.5886 25.9407 51.7069 23.8252 51.7069 21.2146C51.7069 20.9738 51.6897 20.7375 51.6545 20.5034C51.3123 18.2323 49.3475 16.4884 46.9745 16.4884C44.6016 16.4884 42.6368 18.2323 42.2946 20.5064ZM59.856 20.5034L62.208 28.416H53.957L52.3344 22.9973C51.2479 26.1195 47.5818 28.416 43.2268 28.416C38.0159 28.416 33.792 25.1286 33.792 21.074C33.792 20.884 33.801 20.6956 33.819 20.5034C34.1904 16.7187 38.2601 13.7319 43.2268 13.7319C46.046 13.7319 48.5762 14.6944 50.3052 16.2192L48.0573 8.71487H38.588C38.588 8.71487 40.1635 7.77113 47.1505 5.23231C54.1367 2.69423 56.3517 8.71487 56.3517 8.71487L59.856 20.5034ZM86.016 28.416V20.4977V8.73215C85.9517 6.4437 84.0803 4.608 81.7792 4.608C79.9816 4.608 77.5261 5.98776 74.9294 7.44687C74.3102 7.79485 73.6829 8.14733 73.0545 8.4867C72.849 6.31349 71.2078 4.608 68.9904 4.608C66.6512 4.608 59.904 8.70072 59.904 8.70072H64.7536V28.416H73.0702V10.1772C73.4065 9.31362 74.2458 8.70072 75.2279 8.70072C76.5066 8.70072 77.5424 9.73869 77.5424 11.0191V28.416H86.016ZM99.4706 20.7462L100.657 24.6708C100.68 26.3528 102.062 27.6992 103.759 27.6992C105.494 27.6992 106.9 26.2934 106.9 24.5587C106.9 24.436 106.892 24.3149 106.878 24.196L102.324 8.6305C102.15 7.06063 100.819 5.84071 99.2035 5.84071C97.6028 5.84071 96.0775 7.33532 95.8826 8.88261L99.4706 20.7462ZM113.048 20.7477C111.433 25.6477 106.818 29.184 101.376 29.184C95.9352 29.184 91.32 25.6477 89.7043 20.7462C89.3047 19.536 89.088 18.2416 89.088 16.896C89.088 10.1093 94.5897 4.608 101.376 4.608C108.163 4.608 113.664 10.1093 113.664 16.896C113.664 18.2416 113.448 19.536 113.048 20.7477ZM126.731 28.416V20.4977V10.1772C127.07 9.31362 127.916 8.70072 128.905 8.70072C130.194 8.70072 131.237 9.73869 131.237 11.0191V28.416H139.776V8.73215C139.712 6.4437 137.825 4.608 135.507 4.608C133.696 4.608 131.223 5.98671 128.608 7.44521C127.983 7.79372 127.349 8.14679 126.715 8.4867C126.508 6.31349 124.854 4.608 122.62 4.608C120.262 4.608 113.664 8.70072 113.664 8.70072H118.351V28.416H126.731Z" fill="black"/>
</svg>
