<svg width="152" height="50" viewBox="0 0 152 50" fill="none" xmlns="http://www.w3.org/2000/svg">
<path fill-rule="evenodd" clip-rule="evenodd" d="M144.936 5.73667C141.484 7.72895 137.906 9.01912 133.574 8.57041C132.374 9.94549 131.205 11.3622 130.128 12.8208C136.207 14.392 142.653 10.8991 146.247 7.57484C150.05 4.22205 152 0 152 0C152 0 149.15 3.31024 144.936 5.73667ZM94.3645 25.8105C93.9046 24.8008 92.8134 24.1554 91.6502 24.2254C87.873 24.5763 84.1785 27.7324 82.2385 32.2631C81.2206 34.592 80.6651 36.5135 80.3008 39.5715C81.4755 38.1972 83.8712 35.9389 86.5899 34.7043C86.5899 34.7043 86.9598 31.7726 88.8462 29.1633C89.5601 28.0828 90.9884 26.3436 92.5925 26.8063C93.9941 27.2833 93.5013 31.2254 91.6387 35.0401C90.2605 37.846 88.1515 40.6524 86.0176 42.5877C84.131 44.2149 81.3397 46.1788 78.8975 44.664C77.3593 43.7385 76.5748 41.802 76.7404 39.3053C77.4753 32.2215 80.649 26.1895 85.1906 19.316C89.8734 12.9333 95.0354 6.38243 101.989 2.88894C103.408 2.15961 104.721 1.99132 105.857 2.44023C105.857 2.44023 99.3288 6.08744 96.2172 12.835L96.1826 12.9099C95.3942 14.6137 94.3408 16.8903 95.4334 18.9088C96.0127 19.9747 97.0412 20.0591 97.8695 20.0029C101.684 19.1049 104.148 15.4859 106.161 12.1756C107.329 9.66469 108.366 7.16772 108.366 4.39015C108.366 4.05356 108.349 3.60485 108.321 3.26788C110.143 2.28631 113.88 4.02539 113.88 4.02539C115.596 4.60279 118.452 6.51288 120.94 8.17745L120.94 8.17749L120.94 8.17753C122.685 9.3449 124.25 10.3915 125.115 10.773C126.138 9.56674 127.819 7.74333 128.765 6.83133L127.395 5.9755C125.293 4.67155 123.075 3.43184 120.886 2.20747L120.885 2.20731L120.6 2.04767C115.416 -0.827657 111.197 0.182092 109.049 0.967772C108.205 1.27618 107.434 1.5428 107.434 1.5428C105.841 -0.224644 103.227 -0.0567361 101.301 0.420537C94.3751 2.44042 87.9449 7.364 81.051 15.9072C75.9826 22.5986 72.8387 28.3782 71.163 34.0873C69.8714 37.9308 69.4789 43.5839 72.6314 46.9367C75.3118 49.7836 78.866 49.1668 81.3757 48.1433C86.8136 45.4218 91.7011 39.5579 94.1365 32.8103C94.7243 30.8046 95.3764 27.9711 94.3645 25.8105ZM21.8527 20.5641C26.4595 14.308 32.2112 10.6608 35.0728 12.5686C37.7166 14.5261 35.687 19.4444 35.0333 21.0283C34.9657 21.1921 34.9128 21.3203 34.8814 21.4058C35.9079 21.6728 39.1912 19.2884 41.1056 17.1418C42.6262 15.4301 45.2311 13.2279 46.877 12.5969C48.1064 11.9934 50.006 11.7973 51.2512 12.5544C52.0869 13.0458 52.6466 14.0556 52.7055 15.1219C52.8702 18.0957 49.465 22.9775 47.7576 20.5088C47.4062 19.4425 47.7902 18.306 48.8957 17.1276C49.4567 16.5384 50.1471 16.2723 51.0086 16.3003C51.3482 15.7531 51.2616 14.9542 50.7247 14.631C50.1617 14.2802 49.0264 14.5195 47.9823 15.3465C44.2828 18.3346 41.032 23.2869 39.1454 28.7439C38.8113 29.7677 38.6291 31.3266 39.2214 32.3929C40.8417 34.9306 44.6341 31.3984 44.6341 31.3984C47.194 29.084 49.6627 25.8774 51.6017 23.0295C56.6383 15.6231 63.328 9.23648 66.2822 13.3886C66.306 13.4204 66.3346 13.4678 66.3618 13.5128C66.3949 13.5676 66.4258 13.6189 66.4434 13.6343C66.4859 13.5781 67.0067 12.7219 67.0067 12.7219H71.7748C71.7748 12.7219 61.6761 30.5188 61.6629 30.547C61.4529 30.981 61.3188 31.5938 61.6589 31.8884C61.9137 32.0709 62.3427 31.8698 62.4063 31.84L62.4114 31.8376L62.4143 31.8364C64.7804 30.6701 68.3009 25.709 68.9727 24.7623L68.973 24.7618C69.0445 24.661 69.0837 24.6058 69.0855 24.6058H70.7278C68.1533 28.4392 64.9656 32.8742 61.0089 35.7075C59.9102 36.451 58.4651 37.243 57.0372 36.7236C55.6822 35.8565 55.7685 34.7984 55.8713 33.5393C55.8832 33.3926 55.8954 33.2431 55.9056 33.0909C55.9052 33.0909 55.9022 33.0944 55.8964 33.101L55.8729 33.1283C55.4986 33.5652 51.9808 37.6715 49.0106 36.7939C47.9729 36.4573 46.3139 35.5448 47.5446 31.196C47.5446 31.196 47.6388 30.8041 47.711 30.5104C47.4256 30.7904 46.921 31.2809 46.921 31.2809C43.9597 34.2268 40.603 37.5378 36.3994 36.8219C33.564 35.9267 33.3456 33.1835 33.2503 31.9856L33.2503 31.9853L33.2502 31.9849C33.2395 31.8506 33.2304 31.7357 33.2192 31.6451C32.8886 28.8979 35.8892 23.5505 36.3048 22.8098C36.3348 22.7564 36.3513 22.727 36.3522 22.7241C35.4407 22.9908 34.6318 23.1872 33.9602 23.313C33.9084 23.3973 32.8218 25.2209 32.8218 25.2209L32.7546 25.3341C31.593 27.2917 30.3882 29.3221 28.8371 31.0149L28.5372 31.3379C26.2124 34.1009 20.7454 39.2629 17.8007 35.714C15.8209 32.698 17.64 26.1758 21.8527 20.5641ZM62.3462 15.7109C61.688 16.2999 58.9883 19.793 58.0608 21.0974C54.3312 26.2038 53.1227 29.8924 53.023 31.0985C52.9877 31.4632 53.1112 31.814 53.4244 32.0245C53.6845 32.2217 54.0754 32.1935 54.3125 32.1228C55.9754 31.1832 56.9948 29.8363 58.0072 28.2657C58.0072 28.2657 58.7293 27.1438 58.7246 27.1576C61.017 23.2858 63.4552 18.979 65.521 15.2196C65.4444 14.6028 64.5597 13.7322 62.3462 15.7109ZM32.1217 23.3557C32.1217 23.3557 32.08 23.4824 32.0597 23.5238C32.0544 23.5238 29.9807 26.9602 29.9807 26.9602L29.9509 27.0006C28.7044 28.6916 27.1512 30.7987 25.2135 31.8142C24.6346 32.0105 23.8342 32.1372 23.4263 31.6185C22.5618 30.5662 23.0074 29.1071 23.3694 27.9291L23.4976 27.5082C24.5355 24.6468 26.1822 22.1213 27.7853 19.7787C27.8053 19.7649 27.8502 19.7509 27.8664 19.7509C27.8668 19.7525 27.8673 19.7539 27.8678 19.7552C27.8688 19.7578 27.87 19.7599 27.8711 19.7621C27.8743 19.7682 27.8777 19.7746 27.8794 19.793C28.8852 21.7566 30.7713 22.668 32.1817 23.0895C32.1902 23.0895 32.1995 23.1035 32.1995 23.1316C32.1996 23.1734 32.1766 23.23 32.1217 23.3557ZM33.1627 21.4623C33.1627 21.4623 34.077 19.3301 34.0862 19.3022C34.4003 18.348 34.6773 17.3241 34.6771 16.4126C34.6771 15.7389 34.5256 15.1219 34.1259 14.6448C33.4777 14.1256 32.3615 14.392 31.6435 14.8974C30.8954 15.4723 29.197 17.0574 29.6104 19.0775C29.9101 20.1154 30.8824 20.9853 32.1713 21.3918L32.5818 21.4623L32.6137 21.4699C32.8399 21.5232 33.0363 21.5695 33.1627 21.4623ZM98.1438 18.376C99.7318 17.9838 106.149 13.0597 106.869 4.67095C106.897 4.36197 106.9 4.13809 106.803 3.78733C102.849 5.84957 99.164 9.87515 97.0055 14.617C95.5396 18.1375 97.1815 18.5721 98.1438 18.376ZM75.1713 12.7223H79.6994L77.1443 16.9392H72.6171L75.1713 12.7223ZM58.4783 43.6164C52.8119 39.9562 45.1218 39.3139 32.7198 42.7642C30.8288 43.2098 29.1181 43.6325 27.5578 44.018C18.2092 46.328 14.2622 47.3033 9.30094 43.8676C7.07684 41.8982 6.27945 38.7272 6.87487 34.1596C8.25589 26.7136 11.988 19.5481 18.6172 11.5997C22.3174 7.46501 25.7498 3.91667 30.282 2.4918C33.7555 1.59794 33.4308 4.33525 33.0105 4.72674C32.567 4.72674 31.8219 4.79679 31.2461 5.17357C30.7788 5.53699 29.496 6.71048 29.4271 8.28901C29.3277 10.7055 31.8215 10.2025 32.8972 8.87575C34.0567 7.38064 35.7702 4.51754 34.4223 1.84913C33.8574 0.899342 32.8812 0.242928 31.6693 0.0194157C27.5192 -0.218413 23.6542 1.76533 20.087 3.95847C12.2859 9.39245 6.0455 16.922 2.51443 25.1639C0.478784 30.1368 -1.36232 37.2602 1.39724 43.0579C3.53225 47.0808 7.96427 49.2176 13.2521 48.7708C16.3836 48.4409 20.0682 47.5326 22.9549 46.821L22.955 46.821C23.4871 46.6898 23.9921 46.5654 24.4615 46.4524C24.7343 46.3867 25.1088 46.2833 25.568 46.1566L25.5681 46.1565C30.1862 44.882 43.376 41.2417 47.99 49.666C47.99 49.666 49.6769 46.3824 53.8927 46.3123C57.3587 45.9917 62.3589 47.3184 66 50C64.7869 48.1707 61.3476 45.4746 58.4783 43.6164ZM132.671 44.207C132.183 44.5404 131.497 44.2841 131.753 43.52C132.392 41.5744 134.93 37.6096 134.93 37.6096L142 25.0152H137.157C136.927 25.3949 136.435 26.2669 136.435 26.2669C136.211 25.8921 135.541 25.0587 135.265 24.8784C134.082 24.1274 132.346 24.4825 131.149 25.1633C126.009 28.1819 122.241 34.108 119.263 38.7919L119.148 38.9735C119.148 38.9735 115.994 44.2106 114.244 44.6C112.877 44.7113 113.018 42.8622 113.077 42.4313C113.606 39.318 114.833 36.3582 116.069 33.6761C118.584 31.9251 121.454 29.6323 124.062 27.117C129.722 21.6829 134.493 15.5265 135.19 14.1508C135.19 14.1508 134.436 14.3039 133.544 14.3314C129.19 20.4321 120.279 29.2986 117.578 30.6185C118.775 27.7273 126.507 13.9283 133.086 7.32745L134.122 6.32656C135.723 4.7562 137.381 3.14425 138.674 2.88012C138.811 2.86626 138.986 2.88012 139.138 3.20027C139.196 4.42295 138.743 5.32643 138.223 6.35466L137.494 7.85571C137.494 7.85571 138.526 7.66108 139.204 7.43815C139.991 5.95191 140.862 4.28376 140.54 2.29698C140.434 1.65763 139.973 1.17134 139.37 1.06006C137.408 0.684847 135.269 2.14355 133.547 3.32522L133.478 3.36661C124.63 10.329 117.159 20.3626 110.627 34.065C110.153 34.4257 108.324 34.857 108.013 34.6483C108.658 33.3145 109.47 31.5214 109.877 29.5759C109.947 29.0197 110.012 28.4504 110.012 27.8946C110.012 26.6985 109.727 25.5732 108.66 24.7955C107.409 24.17 105.863 24.462 104.821 24.9341C100.152 26.8797 96.662 31.6883 94.1437 35.6484C92.7893 38.1644 91.4389 40.8591 91.0649 43.9447C90.8016 46.3624 91.3377 47.9191 92.7065 48.6974C94.1138 49.4195 95.8852 48.6689 96.5811 48.3079C101.311 45.8064 104.617 40.79 107.222 36.2038C107.238 36.2017 107.288 36.1988 107.364 36.1944C107.768 36.1711 108.919 36.1046 109.824 35.8704C109.838 35.8704 109.844 35.8704 109.868 35.8848C109.806 36.0926 109.25 37.7607 109.25 37.7607C107.599 42.6241 106.836 45.9319 108.395 47.8911C110.624 50.6567 114.314 47.7943 117.316 44.0137C116.671 48.5438 119.009 49.253 120.791 48.9059C122.838 48.3503 125.119 46.1541 126.177 45.0288C125.837 46.3487 125.929 48.7116 127.792 48.9475C128.887 49.1509 129.746 48.666 130.666 48.1465L130.666 48.1464L130.668 48.1455C130.819 48.0601 130.972 47.9738 131.128 47.8894C135.092 45.7213 139.838 38.4967 141.07 36.408H139.454L139.263 36.6988C137.541 39.316 135.373 42.6122 132.671 44.207ZM97.0872 43.7231C96.8358 43.3477 96.7524 42.9376 96.7441 42.494C96.6959 39.769 99.6149 34.8893 101.675 32.2308H101.679C102.543 34.1297 104.498 35.3503 105.678 35.8647C104.212 39.1446 99.1848 46.1689 97.0872 43.7231ZM103.424 31.3691C103.901 33.662 106.366 34.4964 106.506 34.3984C107.296 33.0147 107.906 31.5341 108.319 29.9934L108.331 29.8958L108.336 29.8527L108.336 29.8525C108.388 29.4336 108.445 28.9777 108.445 28.5336C108.445 27.7845 108.289 27.0891 107.712 26.6993C107.091 26.4779 106.245 26.6301 105.683 27.0752C104.373 27.8526 103.02 29.3951 103.424 31.3691ZM126.28 42.8478C126.278 42.8478 125.812 43.2646 125.812 43.2646L125.768 43.304C125.117 43.8896 124.444 44.4941 123.636 44.1813C123.408 44.0982 123.248 43.7926 123.209 43.5557C123.172 41.8521 123.933 40.2732 124.674 38.7356L124.681 38.72L124.872 38.3169L124.983 38.1305C127.096 34.5861 129.558 30.4564 133.144 27.5752C133.759 27.1296 134.426 26.7551 135.131 27.0471C135.293 27.1998 135.481 27.4639 135.481 27.7277C135.481 27.8114 135.407 28.0336 135.365 28.1029C134.463 29.5666 133.599 31.0947 132.758 32.5823L132.758 32.5825L132.431 33.1617C130.586 36.4552 128.672 39.8593 126.28 42.8478Z" fill="black"/>
</svg>
