<svg width="17" height="16" viewBox="0 0 17 16" fill="none" xmlns="http://www.w3.org/2000/svg">
<path fill-rule="evenodd" clip-rule="evenodd" d="M15.5006 1.45882C15.0301 1.03529 14.5595 0.658824 13.9477 0.423529C13.3359 0.188235 12.7242 0.0470588 11.9242 0.0470588C11.1242 0 10.8889 0 8.95947 0C7.03006 0 6.79477 0 5.99477 0.0470588C5.19477 0.0941176 4.583 0.188235 3.97124 0.423529C3.35947 0.658824 2.84183 0.988235 2.4183 1.45882C1.99477 1.92941 1.6183 2.4 1.383 3.01176C1.14771 3.62353 1.00653 4.23529 1.00653 5.03529C0.959473 5.83529 0.959473 6.07059 0.959473 8C0.959473 9.92941 0.959473 10.1647 1.00653 10.9647C1.05359 11.7647 1.14771 12.3765 1.383 12.9882C1.6183 13.6 1.94771 14.1176 2.4183 14.5412C2.88888 14.9647 3.35947 15.3412 3.97124 15.5765C4.583 15.8118 5.19477 15.9529 5.99477 15.9529C6.79477 16 7.03006 16 8.95947 16C10.8889 16 11.1242 16 11.9242 15.9529C12.7242 15.9059 13.3359 15.8118 13.9477 15.5765C14.5595 15.3412 15.0771 15.0118 15.5006 14.5412C15.9242 14.0706 16.3006 13.6 16.5359 12.9882C16.7712 12.3765 16.9124 11.7647 16.9124 10.9647C16.9595 10.1647 16.9595 9.92941 16.9595 8C16.9595 6.07059 16.9595 5.83529 16.9124 5.03529C16.8654 4.23529 16.7712 3.62353 16.5359 3.01176C16.3006 2.4 15.9712 1.88235 15.5006 1.45882ZM15.0301 10.8706C14.983 11.6235 14.8889 12 14.7477 12.2824C14.6065 12.6588 14.4183 12.9412 14.1359 13.2235C13.8536 13.5059 13.5712 13.6941 13.1948 13.8353L13.1385 13.8542C12.8619 13.9474 12.487 14.0736 11.783 14.1176H8.95947C7.07712 14.1176 6.84183 14.1176 6.08888 14.0706C5.33594 14.0235 4.95947 13.9294 4.67712 13.7882C4.30065 13.6471 4.0183 13.4588 3.73594 13.1765C3.45359 12.8941 3.26536 12.6118 3.12418 12.2353L3.10528 12.179C3.01211 11.9024 2.88583 11.5275 2.84183 10.8235V8C2.84183 6.11765 2.84183 5.88235 2.88888 5.12941C2.93594 4.37647 3.03006 4 3.17124 3.71765C3.31241 3.34118 3.50065 3.05882 3.783 2.77647C4.06536 2.49412 4.34771 2.30588 4.72418 2.16471L4.78049 2.1458C5.05705 2.05264 5.43193 1.92635 6.13594 1.88235H8.95947C10.8418 1.88235 11.0771 1.88235 11.8301 1.92941C12.583 1.97647 12.9595 2.07059 13.2418 2.21176C13.6183 2.35294 13.9006 2.54118 14.183 2.82353C14.4654 3.10588 14.6536 3.38824 14.7948 3.76471L14.8137 3.82101C14.9068 4.09757 15.0331 4.47245 15.0771 5.17647V8C15.0771 9.88235 15.0771 10.1176 15.0301 10.8706ZM12.9595 4.89412C13.4533 4.89412 13.8536 4.49381 13.8536 4C13.8536 3.50619 13.4533 3.10588 12.9595 3.10588C12.4657 3.10588 12.0654 3.50619 12.0654 4C12.0654 4.49381 12.4657 4.89412 12.9595 4.89412ZM4.8183 8C4.8183 5.69412 6.65359 3.85882 8.95947 3.85882C11.2654 3.85882 13.1006 5.69412 13.1006 8C13.1006 10.3059 11.2654 12.1412 8.95947 12.1412C6.65359 12.1412 4.8183 10.3059 4.8183 8ZM6.70065 8C6.70065 9.22353 7.73594 10.2588 8.95947 10.2588C10.183 10.2588 11.2183 9.22353 11.2183 8C11.2183 6.77647 10.183 5.74118 8.95947 5.74118C7.73594 5.74118 6.70065 6.77647 6.70065 8Z" fill="black"/>
</svg>
