<svg width="97" height="22" viewBox="0 0 97 22" fill="none" xmlns="http://www.w3.org/2000/svg">
<path fill-rule="evenodd" clip-rule="evenodd" d="M3.80765 11.4459V22H0V0H3.80765V10.0338H15.1923V0H19V22H15.1923V11.4459H3.80765ZM29 21.7447C28.4762 21.9149 27.869 22 27.1786 22C26.5357 22 25.9554 21.8897 25.4375 21.6691C24.9196 21.4485 24.4821 21.146 24.125 20.7616C23.7679 20.3771 23.4911 19.9202 23.2946 19.3908C23.0982 18.8613 23 18.2941 23 17.6891C23 16.9454 23.1399 16.2773 23.4196 15.6849C23.6994 15.0924 24.0804 14.5599 24.5625 14.0872C25.0446 13.6145 25.6042 13.1954 26.2411 12.8298C26.878 12.4643 27.5595 12.1366 28.2857 11.8466C29.0119 11.5567 29.756 11.3015 30.5179 11.0809C31.2798 10.8603 32.0238 10.6492 32.75 10.4475V9.36975C32.75 8.58824 32.6756 7.92962 32.5268 7.39391C32.378 6.85819 32.1667 6.42332 31.8929 6.08929C31.619 5.75525 31.2887 5.51576 30.9018 5.3708C30.5149 5.22584 30.0774 5.15336 29.5893 5.15336C29.0417 5.15336 28.5952 5.22899 28.25 5.38025C27.9048 5.53151 27.6339 5.73004 27.4375 5.97584C27.2411 6.22164 27.1071 6.49895 27.0357 6.80777C26.9643 7.1166 26.9286 7.43487 26.9286 7.7626C26.9286 8.06513 26.9048 8.35504 26.8571 8.63235C26.8095 8.90966 26.7262 9.15546 26.6071 9.36975C26.4881 9.58403 26.3244 9.7542 26.1161 9.88025C25.9077 10.0063 25.6429 10.0693 25.3214 10.0693C24.8214 10.0693 24.4137 9.8771 24.0982 9.49265C23.7827 9.10819 23.625 8.62605 23.625 8.04622C23.625 7.47899 23.8006 6.94643 24.1518 6.44853C24.503 5.95063 24.9792 5.52206 25.5804 5.16282C26.1815 4.80357 26.881 4.51996 27.6786 4.31198C28.4762 4.10399 29.3155 4 30.1964 4C31.2679 4 32.1726 4.11029 32.9107 4.33088C33.6488 4.55147 34.247 4.86029 34.7054 5.25735C35.1637 5.65441 35.494 6.13655 35.6964 6.70378C35.8988 7.27101 36 7.90126 36 8.59454V21.6218H32.75V19.2584C32.369 19.5735 31.994 19.8918 31.625 20.2132C31.256 20.5347 30.8571 20.8277 30.4286 21.0924C30 21.3571 29.5238 21.5746 29 21.7447ZM27.774 19.7551C28.1128 19.9184 28.4676 20 28.8384 20C29.2347 20 29.6087 19.9516 29.9603 19.8549C30.3119 19.7581 30.6539 19.6281 30.9863 19.4649C31.3187 19.3016 31.6511 19.1081 31.9836 18.8844C32.316 18.6606 32.6548 18.4278 33 18.1859V12C32.2457 12.2177 31.4594 12.4928 30.6411 12.8254C29.8228 13.158 29.0685 13.5359 28.3781 13.9592C27.6877 14.3825 27.1187 14.8511 26.6712 15.3651C26.2237 15.8791 26 16.4263 26 17.0068C26 17.4059 26.0799 17.7868 26.2397 18.1497C26.3995 18.5125 26.6105 18.8299 26.8726 19.102C27.1347 19.3741 27.4352 19.5918 27.774 19.7551ZM56 4L47.8146 22H46.543L44.0648 16.7784L45.9728 12.8153L48.1921 17.4756L54.3311 4H56ZM43.2257 7.04671L41.7748 4H38L41.6142 11.6149L43.2257 7.04671ZM68.3 21.2437C67.1383 21.7479 65.875 22 64.5098 22C63.1316 22 61.8617 21.77 60.7 21.3099C59.5383 20.8498 58.5342 20.2195 57.6876 19.4191C56.8409 18.6187 56.1813 17.6859 55.7088 16.6208C55.2363 15.5557 55 14.4181 55 13.208C55 11.9349 55.2363 10.7405 55.7088 9.625C56.1813 8.50945 56.8409 7.53571 57.6876 6.70378C58.5342 5.87185 59.5383 5.21324 60.7 4.72794C61.8617 4.24265 63.1316 4 64.5098 4C65.875 4 67.1383 4.22059 68.3 4.66176C69.4617 5.10294 70.4658 5.70798 71.3124 6.47689C72.1591 7.2458 72.8186 8.14391 73.2912 9.17122C73.7637 10.1985 74 11.3046 74 12.4895C74 13.8004 73.7637 15.0326 73.2912 16.1859C72.8186 17.3393 72.1591 18.3445 71.3124 19.2017C70.4658 20.0588 69.4617 20.7395 68.3 21.2437ZM62.578 20.2647C63.3468 20.7549 64.2174 21 65.19 21C65.8996 21 66.5469 20.8203 67.1317 20.4608C67.7165 20.1013 68.2225 19.6176 68.6496 19.0098C69.0768 18.402 69.4086 17.6961 69.6452 16.8922C69.8817 16.0882 70 15.2353 70 14.3333C70 13.0392 69.8883 11.8235 69.6649 10.6863C69.4415 9.54902 69.08 8.55882 68.5806 7.71569C68.0812 6.87255 67.4274 6.20915 66.6192 5.72549C65.8109 5.24183 64.822 5 63.6523 5C63.0478 5 62.4662 5.1732 61.9077 5.51961C61.3492 5.86601 60.853 6.33987 60.4194 6.94118C59.9857 7.54248 59.6407 8.24183 59.3844 9.03922C59.1281 9.8366 59 10.6863 59 11.5882C59 12.8954 59.138 14.1209 59.414 15.2647C59.69 16.4085 60.0941 17.4052 60.6263 18.2549C61.1586 19.1046 61.8091 19.7745 62.578 20.2647ZM86.8363 21.5273C85.9945 21.8424 85.0836 22 84.1037 22C82.9729 22 81.9175 21.7763 80.9376 21.3288C79.9576 20.8813 79.1001 20.27 78.3651 19.4947C77.6301 18.7195 77.0522 17.8151 76.6313 16.7815C76.2104 15.7479 76 14.6387 76 13.4538C76 12.1555 76.2324 10.9296 76.6973 9.77626C77.1622 8.6229 77.7966 7.6208 78.6007 6.76996C79.4048 5.91912 80.3502 5.24475 81.437 4.74685C82.5238 4.24895 83.6828 4 84.914 4C85.8814 4 86.7703 4.10714 87.5807 4.32143C88.391 4.53571 89.0915 4.82563 89.682 5.19118C90.2725 5.55672 90.7311 5.9916 91.0577 6.4958C91.3844 7 91.5477 7.54202 91.5477 8.12185C91.5477 8.38655 91.4817 8.63235 91.3498 8.85924C91.2179 9.08613 91.042 9.28466 90.8221 9.45483C90.6023 9.625 90.3573 9.7605 90.0872 9.86134C89.817 9.96218 89.5438 10.0126 89.2674 10.0126C88.9658 10.0126 88.6894 9.95903 88.4382 9.85189C88.1869 9.74475 87.9764 9.59979 87.8068 9.41702C87.6372 9.23424 87.5053 9.02941 87.4111 8.80252C87.3168 8.57563 87.2697 8.34874 87.2697 8.12185C87.2697 7.71849 87.2289 7.34349 87.1472 6.99685C87.0656 6.65021 86.9148 6.35084 86.6949 6.09874C86.4751 5.84664 86.1798 5.64811 85.8092 5.50315C85.4386 5.35819 84.9643 5.28571 84.3863 5.28571C83.6074 5.28571 82.9101 5.44328 82.2945 5.7584C81.6788 6.07353 81.1574 6.49895 80.7303 7.03466C80.3031 7.57038 79.9764 8.20063 79.7503 8.92542C79.5241 9.65021 79.4111 10.4223 79.4111 11.2416C79.4111 12.3382 79.5524 13.3813 79.8351 14.3708C80.1178 15.3603 80.523 16.2237 81.0506 16.9611C81.5783 17.6985 82.2128 18.2847 82.9541 18.7195C83.6953 19.1544 84.5183 19.3718 85.4229 19.3718C86.2269 19.3718 86.9211 19.2458 87.5053 18.9937C88.0895 18.7416 88.5984 18.4013 89.0318 17.9727C89.4653 17.5441 89.8359 17.0462 90.1437 16.479C90.4515 15.9118 90.7248 15.313 90.9635 14.6828L92 15.0987C91.711 16.1828 91.3216 17.1502 90.8316 18.001C90.3416 18.8519 89.7636 19.5735 89.0978 20.166C88.4319 20.7584 87.6781 21.2122 86.8363 21.5273ZM95.7835 21.8404C95.5361 21.9468 95.2749 22 95 22C94.7251 22 94.4639 21.9468 94.2165 21.8404C93.9691 21.734 93.756 21.5922 93.5773 21.4149C93.3986 21.2376 93.2577 21.0284 93.1546 20.7872C93.0515 20.5461 93 20.2837 93 20C93 19.7305 93.0515 19.4716 93.1546 19.2234C93.2577 18.9752 93.3986 18.7624 93.5773 18.5851C93.756 18.4078 93.9691 18.266 94.2165 18.1596C94.4639 18.0532 94.7251 18 95 18C95.2749 18 95.5361 18.0532 95.7835 18.1596C96.0309 18.266 96.244 18.4078 96.4227 18.5851C96.6014 18.7624 96.7423 18.9752 96.8454 19.2234C96.9485 19.4716 97 19.7305 97 20C97 20.2837 96.9485 20.5461 96.8454 20.7872C96.7423 21.0284 96.6014 21.2376 96.4227 21.4149C96.244 21.5922 96.0309 21.734 95.7835 21.8404Z" fill="white"/>
</svg>
