<?xml version="1.0" encoding="UTF-8"?>
<svg width="129px" height="24px" viewBox="0 0 129 24" version="1.1" xmlns="http://www.w3.org/2000/svg" xmlns:xlink="http://www.w3.org/1999/xlink">
    <title>MAGIKA</title>
    <g id="Page-1" stroke="none" stroke-width="1" fill="none" fill-rule="evenodd">
        <g id="Desktop-HD" transform="translate(-996.000000, -78.000000)" fill="#000000" fill-rule="nonzero">
            <path d="M1001.46108,101 L1001.46108,86.7457386 L1001.64219,86.7457386 L1007.28849,100.893466 L1010.33537,100.893466 L1015.98168,86.7990057 L1016.16278,86.7990057 L1016.16278,101 L1020.63722,101 L1020.63722,79.1818182 L1014.9483,79.1818182 L1008.93977,93.8409091 L1008.68409,93.8409091 L1002.67557,79.1818182 L996.986648,79.1818182 L996.986648,101 L1001.46108,101 Z M1029.85497,101 L1031.47429,96.024858 L1039.34716,96.024858 L1040.96648,101 L1045.90966,101 L1038.38835,79.1818182 L1032.44375,79.1818182 L1024.91179,101 L1029.85497,101 Z M1038.18594,92.4240057 L1032.64616,92.4240057 L1035.33082,84.1676136 L1035.50128,84.1676136 L1038.18594,92.4240057 Z M1058.81349,101.298295 C1060.65298,101.298295 1062.28118,100.928977 1063.69808,100.190341 C1065.11499,99.4517045 1066.22827,98.3916903 1067.03793,97.0102983 C1067.84759,95.6289062 1068.25241,93.9829545 1068.25241,92.0724432 L1068.25241,92.0724432 L1068.25241,89.3238636 L1059.12244,89.3238636 L1059.12244,92.796875 L1063.80994,92.796875 C1063.78153,94.1463068 1063.32876,95.2205256 1062.45163,96.0195312 C1061.5745,96.8185369 1060.36889,97.2180398 1058.8348,97.2180398 C1057.10185,97.2180398 1055.72756,96.5965909 1054.71193,95.3536932 C1053.69631,94.1107955 1053.18849,92.3494318 1053.18849,90.0696023 C1053.18849,87.796875 1053.70518,86.0443892 1054.73857,84.8121449 C1055.77195,83.5799006 1057.12315,82.9637784 1058.79219,82.9637784 C1059.97827,82.9637784 1060.96371,83.253196 1061.74851,83.8320312 C1062.53331,84.4108665 1063.07131,85.2116477 1063.3625,86.234375 L1063.3625,86.234375 L1068.05,86.234375 C1067.85114,84.7926136 1067.32557,83.5195312 1066.4733,82.4151278 C1065.62102,81.3107244 1064.52727,80.4460227 1063.19205,79.8210227 C1061.85682,79.1960227 1060.36534,78.8835227 1058.71761,78.8835227 C1056.8,78.8835227 1055.0706,79.3274148 1053.5294,80.2151989 C1051.98821,81.102983 1050.76662,82.3849432 1049.86463,84.0610795 C1048.96264,85.7372159 1048.51165,87.7542614 1048.51165,90.1122159 C1048.51165,92.4133523 1048.94311,94.4002131 1049.80604,96.0727983 C1050.66896,97.7453835 1051.87457,99.034446 1053.42287,99.9399858 C1054.97116,100.845526 1056.76804,101.298295 1058.81349,101.298295 Z M1077.7152,101 L1077.7152,79.1818182 L1073.10227,79.1818182 L1073.10227,101 L1077.7152,101 Z M1087.51889,101 L1087.51889,94.7997159 L1089.78807,92.0298295 L1095.76463,101 L1101.2831,101 L1093.09063,88.9509943 L1101.18722,79.1818182 L1095.6581,79.1818182 L1087.80653,88.8018466 L1087.51889,88.8018466 L1087.51889,79.1818182 L1082.90597,79.1818182 L1082.90597,101 L1087.51889,101 Z M1108.74304,101 L1110.36236,96.024858 L1118.23523,96.024858 L1119.85455,101 L1124.79773,101 L1117.27642,79.1818182 L1111.33182,79.1818182 L1103.79986,101 L1108.74304,101 Z M1117.07401,92.4240057 L1111.53423,92.4240057 L1114.21889,84.1676136 L1114.38935,84.1676136 L1117.07401,92.4240057 Z" id="MAGIKA"></path>
        </g>
    </g>
</svg>