<?xml version="1.0" encoding="UTF-8"?>
<svg width="128px" height="22px" viewBox="0 0 128 22" version="1.1" xmlns="http://www.w3.org/2000/svg" xmlns:xlink="http://www.w3.org/1999/xlink">
    <title>MAGIKA</title>
    <g id="Page-1" stroke="none" stroke-width="1" fill="none" fill-rule="evenodd">
        <g id="Artboard" transform="translate(-172.000000, -103.000000)" fill="#FFFFFF" fill-rule="nonzero">
            <path d="M176.481046,124.707224 L176.481046,110.71673 L176.662421,110.71673 L182.317074,124.602662 L185.368453,124.602662 L191.023105,110.769011 L191.204481,110.769011 L191.204481,124.707224 L195.685527,124.707224 L195.685527,103.292776 L189.988197,103.292776 L183.970793,117.680608 L183.714733,117.680608 L177.697329,103.292776 L172,103.292776 L172,124.707224 L176.481046,124.707224 Z M204.916907,124.707224 L206.538619,119.824144 L214.423125,119.824144 L216.044837,124.707224 L220.995326,124.707224 L213.462901,103.292776 L207.509512,103.292776 L199.966419,124.707224 L204.916907,124.707224 Z M213.260187,116.289924 L207.712226,116.289924 L210.400854,108.186312 L210.57156,108.186312 L213.260187,116.289924 Z M233.918234,125 C235.760442,125 237.391045,124.637516 238.810042,123.912548 C240.22904,123.187579 241.343967,122.14718 242.154823,120.79135 C242.965679,119.43552 243.371107,117.820025 243.371107,115.944867 L243.371107,115.944867 L243.371107,113.247148 L234.22764,113.247148 L234.22764,116.655894 L238.922068,116.655894 C238.893617,117.980355 238.440178,119.034696 237.561751,119.818916 C236.683324,120.603137 235.475931,120.995247 233.939573,120.995247 C232.204057,120.995247 230.827735,120.385298 229.810609,119.165399 C228.793483,117.945501 228.28492,116.21673 228.28492,113.979087 C228.28492,111.748416 228.802374,110.028359 229.837282,108.818916 C230.87219,107.609474 232.225395,107.004753 233.896896,107.004753 C235.084729,107.004753 236.071626,107.288815 236.857587,107.856939 C237.643548,108.425063 238.18234,109.211027 238.473964,110.214829 L238.473964,110.214829 L243.168393,110.214829 C242.969235,108.799747 242.44289,107.550222 241.589358,106.466255 C240.735825,105.382288 239.640458,104.533587 238.303257,103.920152 C236.966057,103.306717 235.472375,103 233.822212,103 C231.901764,103 230.169804,103.435678 228.626333,104.307034 C227.082862,105.17839 225.859465,106.436629 224.956143,108.081749 C224.052821,109.726869 223.60116,111.706591 223.60116,114.020913 C223.60116,116.279468 224.033261,118.229563 224.897463,119.871198 C225.761664,121.512833 226.969057,122.778042 228.519641,123.666825 C230.070225,124.555608 231.869756,125 233.918234,125 Z M252.847878,124.707224 L252.847878,103.292776 L248.228133,103.292776 L248.228133,124.707224 L252.847878,124.707224 Z M262.666062,124.707224 L262.666062,118.621673 L264.938592,115.903042 L270.923989,124.707224 L276.450612,124.707224 L268.246031,112.881179 L276.354589,103.292776 L270.817297,103.292776 L262.954129,112.734791 L262.666062,112.734791 L262.666062,103.292776 L258.046317,103.292776 L258.046317,124.707224 L262.666062,124.707224 Z M283.921582,124.707224 L285.543293,119.824144 L293.4278,119.824144 L295.049512,124.707224 L300,124.707224 L292.467576,103.292776 L286.514187,103.292776 L278.971093,124.707224 L283.921582,124.707224 Z M292.264862,116.289924 L286.716901,116.289924 L289.405528,108.186312 L289.576234,108.186312 L292.264862,116.289924 Z" id="MAGIKA"></path>
        </g>
    </g>
</svg>