<svg width="164" height="35" viewBox="0 0 164 35" fill="none" xmlns="http://www.w3.org/2000/svg">
<path fill-rule="evenodd" clip-rule="evenodd" d="M16.5655 16.5655H0V0H16.5655V16.5655ZM163.296 15.7709V12.8991H159.73V8.43456L159.61 8.47152L156.26 9.4964L156.194 9.51646V12.8993H150.907V11.0148C150.907 10.1373 151.103 9.46576 151.49 9.01792C151.874 8.57546 152.423 8.35052 153.124 8.35052C153.627 8.35052 154.149 8.46915 154.674 8.7031L154.805 8.76186V5.73746L154.743 5.71471C154.254 5.53874 153.588 5.45012 152.763 5.45012C151.722 5.45012 150.777 5.67648 149.953 6.1251C149.128 6.57436 148.479 7.2157 148.025 8.03111C147.572 8.84558 147.342 9.78627 147.342 10.8273V12.8991H144.859V15.7709H147.342V27.8693H150.907V15.7709H156.194V23.4593C156.194 26.6257 157.688 28.2303 160.633 28.2303C161.117 28.2303 161.627 28.1736 162.147 28.0625C162.676 27.9485 163.037 27.8346 163.249 27.713L163.296 27.6852V24.7868L163.151 24.8827C162.958 25.0116 162.717 25.117 162.434 25.1953C162.151 25.2751 161.914 25.315 161.73 25.315C161.04 25.315 160.53 25.1291 160.213 24.7622C159.892 24.3919 159.73 23.7444 159.73 22.8386V15.7709H163.296ZM136.898 25.3155C135.604 25.3155 134.584 24.8865 133.865 24.0414C133.142 23.192 132.776 21.981 132.776 20.4424C132.776 18.8551 133.142 17.6127 133.866 16.7483C134.585 15.8896 135.595 15.4537 136.869 15.4537C138.105 15.4537 139.089 15.87 139.794 16.6916C140.502 17.5174 140.862 18.7499 140.862 20.3557C140.862 21.9813 140.524 23.2301 139.857 24.0654C139.195 24.8944 138.2 25.3155 136.898 25.3155ZM131.23 14.6884C132.628 13.2618 134.588 12.5385 137.057 12.5385C139.382 12.5385 141.227 13.2304 142.538 14.5954C143.848 15.9597 144.513 17.8591 144.513 20.2396C144.513 22.6497 143.805 24.6055 142.408 26.0502C141.01 27.4965 139.089 28.23 136.696 28.23C134.399 28.23 132.543 27.534 131.179 26.16C129.816 24.7865 129.124 22.9012 129.124 20.5573C129.124 18.0896 129.832 16.1151 131.23 14.6884ZM123.377 12.5385C121.697 12.5385 120.308 12.968 119.247 13.8149C118.18 14.6668 117.638 15.7841 117.638 17.1361C117.638 17.8389 117.755 18.4631 117.985 18.9926C118.217 19.5239 118.575 19.9916 119.051 20.3842C119.523 20.7735 120.252 21.1814 121.217 21.5964C122.029 21.9305 122.635 22.2131 123.019 22.4358C123.395 22.6541 123.662 22.8735 123.813 23.0873C123.959 23.2964 124.034 23.5826 124.034 23.9359C124.034 24.9416 123.28 25.431 121.731 25.431C121.156 25.431 120.5 25.3109 119.782 25.0743C119.069 24.8413 118.396 24.5 117.786 24.0624L117.638 23.9562V27.3883L117.692 27.4136C118.197 27.6465 118.833 27.8428 119.582 27.9973C120.33 28.1519 121.01 28.2306 121.601 28.2306C123.423 28.2306 124.89 27.7991 125.961 26.9471C127.038 26.0894 127.584 24.9457 127.584 23.5469C127.584 22.5379 127.29 21.6725 126.711 20.9746C126.135 20.2824 125.137 19.6469 123.744 19.0852C122.634 18.6397 121.923 18.27 121.629 17.9861C121.347 17.7119 121.203 17.3241 121.203 16.8329C121.203 16.3976 121.38 16.0488 121.744 15.7664C122.111 15.4825 122.621 15.3381 123.261 15.3381C123.855 15.3381 124.463 15.4319 125.067 15.6158C125.671 15.7997 126.201 16.046 126.644 16.3472L126.79 16.4467V13.1911L126.734 13.167C126.325 12.9919 125.787 12.8419 125.133 12.7203C124.481 12.5995 123.89 12.5385 123.377 12.5385ZM105.312 24.0414C106.031 24.8865 107.052 25.3155 108.345 25.3155C109.647 25.3155 110.642 24.8944 111.304 24.0654C111.971 23.2301 112.309 21.9813 112.309 20.3557C112.309 18.7499 111.95 17.5174 111.241 16.6916C110.536 15.87 109.552 15.4537 108.316 15.4537C107.042 15.4537 106.032 15.8896 105.313 16.7483C104.589 17.6127 104.223 18.8551 104.223 20.4424C104.223 21.9813 104.589 23.192 105.312 24.0414ZM108.504 12.5385C106.035 12.5385 104.074 13.2618 102.677 14.6884C101.28 16.1151 100.571 18.0896 100.571 20.5573C100.571 22.9021 101.263 24.7865 102.627 26.16C103.991 27.534 105.847 28.23 108.143 28.23C110.535 28.23 112.458 27.4965 113.855 26.0502C115.252 24.6055 115.96 22.6497 115.96 20.2396C115.96 17.8591 115.296 15.9597 113.985 14.5954C112.673 13.2304 110.829 12.5385 108.504 12.5385ZM95.1597 12.8991V15.4917H95.1972C95.5262 14.6503 95.9565 13.9757 96.5519 13.4836C97.2302 12.9238 98.022 12.6394 98.907 12.6394C99.494 12.6394 99.9579 12.7097 100.286 12.8491L100.343 12.8735V16.4237L100.195 16.3164C100.032 16.1989 99.7554 16.0872 99.3738 15.9844C98.9882 15.8809 98.6321 15.8286 98.3149 15.8286C97.3791 15.8286 96.6127 16.2331 96.0375 17.0315C95.455 17.8395 95.1597 18.9092 95.1597 20.2113V27.869H91.6384V12.8991H95.1597ZM85.3322 12.5385C83.7167 12.5385 82.2758 12.8849 81.0501 13.5678C79.8219 14.2523 78.8721 15.2294 78.2258 16.472C77.5825 17.7115 77.2558 19.1595 77.2558 20.7742C77.2558 22.1886 77.5725 23.4866 78.1985 24.6306C78.8248 25.7765 79.7113 26.6729 80.8335 27.2947C81.9541 27.9156 83.2493 28.2305 84.6833 28.2305C86.3568 28.2305 87.7856 27.8959 88.9312 27.2361L88.9774 27.2095V23.9834L88.8294 24.0914C88.3105 24.4695 87.7306 24.7712 87.1067 24.9885C86.4843 25.2057 85.9169 25.3155 85.4193 25.3155C84.0375 25.3155 82.9283 24.8832 82.1232 24.0308C81.3163 23.1773 80.9072 21.9788 80.9072 20.4707C80.9072 18.9532 81.3338 17.7239 82.1747 16.8168C83.013 15.9125 84.1243 15.4537 85.4774 15.4537C86.6348 15.4537 87.7627 15.8457 88.8297 16.6197L88.9774 16.7269V13.3277L88.9297 13.3008C88.5282 13.0761 87.9805 12.8904 87.3006 12.7497C86.6236 12.6093 85.9614 12.5385 85.3322 12.5385ZM71.3092 12.8993H74.8305V27.869H71.3092V12.8993ZM73.1059 6.52207C72.5263 6.52207 72.0208 6.71937 71.6055 7.11033C71.1885 7.5024 70.977 7.99605 70.977 8.57862C70.977 9.15204 71.186 9.63667 71.599 10.0183C72.0094 10.3989 72.5165 10.5917 73.106 10.5917C73.6954 10.5917 74.2044 10.3989 74.6197 10.0189C75.0376 9.63667 75.2496 9.15219 75.2496 8.57862C75.2496 8.01642 75.0433 7.52784 74.6369 7.12613C74.2307 6.72521 73.7155 6.52207 73.1059 6.52207ZM64.3198 27.869V11.7948H64.2039L57.8264 27.869H55.2777L48.7991 11.7932H48.6832V27.8689H45.306V6.98033H50.4824L56.6176 22.4958L62.9397 6.98033H67.9136V27.869H64.3198ZM18.2905 16.5655H34.8557V0H18.2905V16.5655ZM16.565 34.8622H0V18.2968H16.565V34.8622ZM18.2905 34.8622H34.8557V18.2968H18.2905V34.8622Z" fill="black"/>
</svg>
