<svg width="105" height="25" viewBox="0 0 105 25" fill="none" xmlns="http://www.w3.org/2000/svg">
<path fill-rule="evenodd" clip-rule="evenodd" d="M48.0022 24.576L54.2099 7.36878C54.7149 5.97593 54.745 3.46365 53.3536 2.08951C51.9589 0.708973 50.2956 4.18837e-06 47.2264 4.18837e-06C44.1571 -0.00212627 41.6604 0.808867 39.6602 1.59785C38.582 2.01565 36.9856 2.84819 35.179 3.94372C35.004 3.24871 34.6806 2.59348 34.1728 2.08951C32.7798 0.708973 31.1135 4.18837e-06 28.0487 4.18837e-06C24.975 -0.00212627 22.4834 0.808867 20.4787 1.59785C19.4054 2.01565 17.8063 2.84819 15.994 3.94372C15.8204 3.24871 15.505 2.59348 14.9942 2.08951C13.599 0.708973 11.9407 4.18837e-06 8.86581 4.18837e-06L0 24.576H9.6416L14.078 12.2863C14.8753 10.0555 17.0686 7.9343 18.266 7.004C19.7973 5.81875 26.6266 3.92691 24.7661 9.09042L19.1822 24.576H28.8252L33.2557 12.284C34.0626 10.0555 36.2459 7.9343 37.4496 7.004C38.9743 5.81875 45.8067 3.92691 43.9447 9.09042L38.3594 24.576H48.0022ZM61.895 24.576C58.3239 24.576 54.8366 24.2219 51.456 23.5631L52.6765 20.1683C55.6641 20.7199 58.7471 21.0089 61.895 21.0089C65.1275 21.0089 67.4788 20.2827 67.7285 18.0615C67.853 17.006 66.8624 16.2443 65.0531 15.2363C64.2105 14.7654 63.4217 14.3903 62.6613 14.0287L62.6612 14.0287C61.5571 13.5037 60.5128 13.0072 59.4506 12.2868C57.649 11.0713 56.8715 9.15789 57.4821 7.1278C58.1858 4.75305 59.8334 3.38174 62.3373 2.08595C65.2812 0.568359 67.6075 0 73.273 0C76.8504 0 80.3377 0.350342 83.712 1.00629L82.4964 4.40342C79.506 3.84879 76.4224 3.56425 73.273 3.56425C70.0419 3.56425 67.6948 4.29121 67.4388 6.51091C67.3213 7.57235 68.3061 8.32961 70.1135 9.33874C70.9575 9.80945 71.7474 10.1843 72.5085 10.5454L72.5086 10.5455L72.5087 10.5455C73.6151 11.0705 74.6608 11.5667 75.7238 12.2868C77.5247 13.5033 78.3 15.4188 77.6957 17.4489C76.9836 19.817 75.3336 21.1869 72.8307 22.4858C69.8924 24.0017 67.5619 24.576 61.895 24.576ZM95.3756 6.01783L88.7105 24.576H79.104L85.4064 7.02577C90.3902 6.01783 95.3756 6.01783 95.3756 6.01783ZM86.2934 4.56983L87.5696 1.00652C92.5565 0 97.536 0 97.536 0L96.2572 3.56425C96.2572 3.56425 91.303 3.56425 86.2934 4.56983ZM100.608 1.91931C100.608 2.9831 101.466 3.84 102.532 3.84C103.591 3.84 104.448 2.9831 104.448 1.91931C104.448 0.857814 103.591 0 102.532 0C101.466 0 100.608 0.857814 100.608 1.91931ZM100.916 1.91931C100.916 1.01957 101.636 0.278835 102.532 0.278835C103.423 0.278835 104.15 1.01957 104.15 1.91931C104.15 2.8241 103.423 3.55842 102.532 3.55842C101.636 3.55842 100.916 2.8241 100.916 1.91931ZM102.512 2.11337L102.998 2.97119H103.34L102.835 2.07557C103.09 1.99286 103.281 1.80453 103.281 1.49682C103.281 1.14146 102.984 0.865375 102.618 0.865375H101.905V2.97119H102.193V2.11337H102.512ZM102.193 1.12405H102.585C102.823 1.12405 102.984 1.28374 102.984 1.49682C102.984 1.7028 102.823 1.85905 102.585 1.85905H102.193V1.12405Z" fill="black"/>
</svg>
