<svg width="144" height="39" viewBox="0 0 144 39" fill="none" xmlns="http://www.w3.org/2000/svg">
<path fill-rule="evenodd" clip-rule="evenodd" d="M122.925 36.5212C124.93 36.7152 126.935 36.9237 128.935 37.1393L133.35 26.256L137.546 38.1432C139.7 38.4125 141.852 38.6952 143.998 38.9904L136.64 18.1453L144 0.00143756H137.767L137.702 0.0905662L133.726 9.89232L130.235 0.00287512H124.081L130.435 18.0035L122.925 36.5212H122.925ZM118.27 36.0947V0.00143756H112.118V35.5882C114.17 35.7463 116.223 35.916 118.27 36.0942M72.0552 34.0764C73.716 34.0764 75.3749 34.0888 77.0309 34.1022V20.8422H84.4216V15.1955H77.0314V5.65488H85.5434V0.00143756H70.8552V34.0812C71.2541 34.0812 71.6549 34.0749 72.0552 34.0764M52.9538 34.4214C55.0035 34.3485 57.055 34.2872 59.1094 34.2374V5.65583H64.8599V0.00287512H47.2034V5.65583H52.9548V34.4214H52.9538ZM5.90168 38.2271V16.7236L13.1863 37.3588C15.4264 37.1077 17.67 36.8715 19.9198 36.6482V0.00191674H14.0167V22.2759L6.15608 0.00191674H0V39H0.0369605C1.98723 38.7307 3.94421 38.4748 5.90168 38.2271M41.271 5.6544V0.00191674H26.5813V36.0372C31.4687 35.616 36.3617 35.2628 41.259 34.9777V29.32C38.4192 29.4848 35.5853 29.6746 32.758 29.8859V20.8446H40.1487V15.1945H32.758V5.6544H41.271ZM97.736 29.0497V0H91.5569V34.442C96.4722 34.6222 101.368 34.8732 106.248 35.1895V29.5284C103.416 29.3458 100.579 29.1872 97.736 29.0492" fill="black"/>
</svg>
